HIERARCHY
ROOT Hips
{
	OFFSET 0.000000 0.000000 0.000000
	CHANNELS 6 Xposition Yposition Zposition Zrotation Yrotation Xrotation 
	JOINT LHipJoint
	{
		OFFSET 0.000000 0.000000 0.000000
		CHANNELS 3 Zrotation Yrotation Xrotation
		JOINT LeftUpLeg
		{
			OFFSET 1.363060 -1.794630 0.839290
			CHANNELS 3 Zrotation Yrotation Xrotation
			JOINT LeftLeg
			{
				OFFSET 2.448110 -6.726130 0.000000
				CHANNELS 3 Zrotation Yrotation Xrotation
				JOINT LeftFoot
				{
					OFFSET 2.562200 -7.039590 0.000000
					CHANNELS 3 Zrotation Yrotation Xrotation
					JOINT LeftToeBase
					{
						OFFSET 0.157640 -0.433110 2.322550
						CHANNELS 3 Zrotation Yrotation Xrotation
						End Site
						{
							OFFSET 0.000000 0.000000 0.000000
						}
					}
				}
			}
		}
	}
	JOINT RHipJoint
	{
		OFFSET 0.000000 0.000000 0.000000
		CHANNELS 3 Zrotation Yrotation Xrotation
		JOINT RightUpLeg
		{
			OFFSET -1.305520 -1.794630 0.839290
			CHANNELS 3 Zrotation Yrotation Xrotation
			JOINT RightLeg
			{
				OFFSET -2.542530 -6.985550 0.000000
				CHANNELS 3 Zrotation Yrotation Xrotation
				JOINT RightFoot
				{
					OFFSET -2.568260 -7.056230 0.000000
					CHANNELS 3 Zrotation Yrotation Xrotation
					JOINT RightToeBase
					{
						OFFSET -0.164730 -0.452590 2.363150
						CHANNELS 3 Zrotation Yrotation Xrotation
						End Site
						{
							OFFSET 0.000000 0.000000 0.000000
						}
					}
				}
			}
		}
	}
	JOINT LowerBack
	{
		OFFSET 0.000000 0.000000 0.000000
		CHANNELS 3 Zrotation Yrotation Xrotation
		JOINT Spine
		{
			OFFSET 0.028270 2.035590 -0.193380
			CHANNELS 3 Zrotation Yrotation Xrotation
			JOINT Spine1
			{
				OFFSET 0.056720 2.048850 -0.042750
				CHANNELS 3 Zrotation Yrotation Xrotation
				JOINT Neck
				{
					OFFSET 0.000000 0.000000 0.000000
					CHANNELS 3 Zrotation Yrotation Xrotation
					JOINT Neck1
					{
						OFFSET -0.054170 1.746240 0.172020
						CHANNELS 3 Zrotation Yrotation Xrotation
						JOINT Head
						{
							OFFSET 0.104070 1.761360 -0.123970
							CHANNELS 3 Zrotation Yrotation Xrotation
							End Site
							{
								OFFSET 0.000000 0.000000 0.000000
							}
						}
					}
				}
				JOINT LeftShoulder
				{
					OFFSET 0.000000 0.000000 0.000000
					CHANNELS 3 Zrotation Yrotation Xrotation
					JOINT LeftArm
					{
						OFFSET 3.362410 1.200890 -0.311210
						CHANNELS 3 Zrotation Yrotation Xrotation
						JOINT LeftForeArm
						{
							OFFSET 4.983000 -0.000000 -0.000000
							CHANNELS 3 Zrotation Yrotation Xrotation
							JOINT LeftHand
							{
								OFFSET 3.483560 -0.000000 -0.000000
								CHANNELS 3 Zrotation Yrotation Xrotation
								JOINT LeftFingerBase
								{
									OFFSET 0.000000 0.000000 0.000000
									CHANNELS 3 Zrotation Yrotation Xrotation
									JOINT LeftHandIndex1
									{
										OFFSET 0.715260 -0.000000 -0.000000
										CHANNELS 3 Zrotation Yrotation Xrotation
										End Site
										{
											OFFSET 0.000000 0.000000 0.000000
										}
									}
								}
								JOINT LThumb
								{
									OFFSET 0.000000 0.000000 0.000000
									CHANNELS 3 Zrotation Yrotation Xrotation
									End Site
									{
										OFFSET 0.000000 0.000000 0.000000
									}
								}
							}
						}
					}
				}
				JOINT RightShoulder
				{
					OFFSET 0.000000 0.000000 0.000000
					CHANNELS 3 Zrotation Yrotation Xrotation
					JOINT RightArm
					{
						OFFSET -3.136600 1.374050 -0.404650
						CHANNELS 3 Zrotation Yrotation Xrotation
						JOINT RightForeArm
						{
							OFFSET -5.241900 -0.000000 -0.000000
							CHANNELS 3 Zrotation Yrotation Xrotation
							JOINT RightHand
							{
								OFFSET -3.444170 -0.000000 -0.000000
								CHANNELS 3 Zrotation Yrotation Xrotation
								JOINT RightFingerBase
								{
									OFFSET 0.000000 0.000000 0.000000
									CHANNELS 3 Zrotation Yrotation Xrotation
									JOINT RightHandIndex1
									{
										OFFSET -0.622530 -0.000000 -0.000000
										CHANNELS 3 Zrotation Yrotation Xrotation
										End Site
										{
											OFFSET 0.000000 0.000000 0.000000
										}
									}
								}
								JOINT RThumb
								{
									OFFSET 0.000000 0.000000 0.000000
									CHANNELS 3 Zrotation Yrotation Xrotation
									End Site
									{
										OFFSET 0.000000 0.000000 0.000000
									}
								}
							}
						}
					}
				}
			}
		}
	}
}
MOTION
Frames: 4
Frame Time: 0.008333
-12.906436 15.899950 -1.647095 161.804256 85.856213 -175.801546 -11.953358 1.651862 -4.623433 -1.844242 10.232629 -18.968694 -1.090187 3.444846 51.588635 0.335275 -0.071939 -6.146162 0.001800 0.000000 -78.604601 8.385375 2.104842 -1.779562 11.523450 1.318986 -58.724569 1.036412 -4.326767 54.140563 -1.964703 -5.638788 -15.542379 0.616600 0.000001 -12.148100 4.540558 -4.659858 9.072986 0.382610 -4.620392 -1.163132 -5.853309 -4.510091 -0.344219 8.591317 -14.669446 -8.483430 -2.810755 -0.179579 -0.519648 0.000000 0.000000 0.000000 8.337109 4.200177 0.806930 -64.717517 -0.303163 10.087690 -179.627723 -84.564709 179.993037 0.639829 7.570697 0.044646 -0.045206 0.242664 0.000000 0.000000 0.000000 0.000000 0.000000 0.000000 0.000000 9.925579 -11.556849 1.031871 71.818727 -10.939897 4.968409 0.336643 78.768822 -0.022005 -6.117721 0.565387 -0.042439 0.103731 -0.232193 -0.000000 0.000000 0.000000 0.000000 0.000000 0.000000 0.000000 
-12.769839 15.897734 -1.620108 160.553934 85.876093 -176.984509 -11.950537 1.700939 -4.534699 -1.743026 9.918844 -18.793030 -0.983092 3.447276 51.797615 0.348109 -0.051174 -4.973936 -0.004300 -0.000000 -79.153300 8.427529 2.083121 -1.773717 11.489589 1.444898 -58.431016 1.004497 -4.340057 54.679435 -2.016663 -5.746180 -16.247449 0.726300 -0.000000 -11.917700 4.684866 -4.664940 8.958837 0.419461 -4.624610 -1.188016 -5.830986 -4.516494 -0.343995 8.641361 -14.622273 -8.443778 -2.808361 -0.180158 -0.505425 0.000000 0.000000 0.000000 8.425154 4.163595 0.810698 -65.460620 0.466903 10.187392 -179.669414 -85.212437 179.994574 0.460637 7.514865 0.032622 -0.039397 0.238944 0.000000 0.000000 0.000000 0.000000 0.000000 0.000000 0.000000 9.965014 -11.506305 0.978375 71.763155 -10.581131 4.978468 0.326834 79.049296 -0.022522 -6.177770 0.517400 -0.040334 0.105487 -0.234178 -0.000000 0.000000 0.000000 0.000000 0.000000 0.000000 0.000000 
-12.634941 15.897106 -1.593630 159.371513 85.901244 -178.084890 -11.950956 1.741203 -4.450743 -1.651528 9.616254 -18.699774 -0.869643 3.454598 52.085451 0.367262 -0.020554 -3.728855 -0.013900 -0.000000 -79.569400 8.466486 2.058630 -1.760547 11.453330 1.599209 -58.134625 0.972282 -4.348725 55.173664 -2.067372 -5.859251 -16.894040 0.830700 -0.000000 -11.616900 4.826499 -4.666512 8.844452 0.454477 -4.625821 -1.213092 -5.812164 -4.519980 -0.346684 8.697818 -14.559398 -8.406022 -2.806213 -0.180715 -0.492085 0.000000 0.000000 0.000000 8.525892 4.128784 0.818860 -66.210263 1.243241 10.255152 -179.710757 -85.867693 179.996159 0.267554 7.454101 0.019795 -0.033377 0.235291 0.000000 0.000000 0.000000 0.000000 0.000000 0.000000 0.000000 10.008734 -11.434745 0.925335 71.720097 -10.219698 4.966902 0.315609 79.348770 -0.023202 -6.268135 0.461517 -0.038028 0.107528 -0.236357 -0.000000 0.000000 0.000000 0.000000 0.000000 0.000000 0.000000 
-12.502006 15.898220 -1.567706 158.307926 85.935658 -179.055310 -11.955685 1.772000 -4.373294 -1.560999 9.334870 -18.693058 -0.750094 3.467757 52.457946 0.392627 0.008551 -2.395425 -0.027700 -0.000000 -79.816900 8.500963 2.031582 -1.742966 11.425357 1.776751 -57.829190 0.942386 -4.352169 55.618207 -2.119097 -5.980990 -17.509199 0.934000 0.000000 -11.248500 4.968614 -4.664507 8.734578 0.487948 -4.623944 -1.237742 -5.797840 -4.520452 -0.353366 8.759912 -14.479917 -8.369663 -2.804740 -0.181285 -0.479558 0.000000 0.000000 0.000000 8.633181 4.093484 0.832213 -66.952326 2.031309 10.290514 -179.751359 -86.519360 179.997683 0.076558 7.393412 0.007268 -0.027476 0.231610 0.000000 0.000000 0.000000 0.000000 0.000000 0.000000 0.000000 10.057125 -11.341518 0.873260 71.687685 -9.850641 4.941021 0.303280 79.663025 -0.024037 -6.385940 0.402008 -0.035522 0.109830 -0.238763 -0.000000 0.000000 0.000000 0.000000 0.000000 0.000000 0.000000 
